<svg width="24" height="24" viewBox="0 0 24 24" fill="none" xmlns="http://www.w3.org/2000/svg">
<g id="btc-crypto-cryptocurrency-cryptocurrencies-cash-money-bank-payment_95386 1">
<g id="Group">
<path id="Vector" d="M12 22C17.5228 22 22 17.5228 22 12C22 6.47715 17.5228 2 12 2C6.47715 2 2 6.47715 2 12C2 17.5228 6.47715 22 12 22Z" fill="#F7931A"/>
<path id="Vector_2" d="M16.4931 10.7625C16.6893 9.4525 15.6912 8.74813 14.3275 8.27813L14.77 6.50313L13.69 6.23438L13.2587 7.9625C12.975 7.89125 12.6837 7.825 12.3931 7.75875L12.8275 6.01938L11.7475 5.75L11.305 7.52437C11.07 7.47063 10.8387 7.41813 10.615 7.36188L10.6162 7.35625L9.12621 6.98438L8.83871 8.13813C8.83871 8.13813 9.64058 8.32188 9.62371 8.33313C10.0612 8.4425 10.14 8.73188 10.1268 8.96188L9.62308 10.9838C9.65308 10.9913 9.69183 11.0025 9.73558 11.0194L9.62121 10.9913L8.91496 13.8238C8.86121 13.9563 8.72558 14.1556 8.41933 14.08C8.43058 14.0956 7.63433 13.8844 7.63433 13.8844L7.09808 15.1206L8.50433 15.4713C8.76558 15.5369 9.02183 15.6056 9.27371 15.67L8.82683 17.465L9.90621 17.7338L10.3487 15.9588C10.6437 16.0381 10.93 16.1119 11.21 16.1819L10.7687 17.9494L11.8487 18.2181L12.2956 16.4269C14.1381 16.7756 15.5231 16.635 16.1062 14.9688C16.5762 13.6275 16.0831 12.8531 15.1137 12.3488C15.82 12.1863 16.3512 11.7219 16.4931 10.7625ZM14.0243 14.2238C13.6912 15.5656 11.4318 14.84 10.6993 14.6581L11.2931 12.28C12.0256 12.4631 14.3737 12.825 14.0243 14.2238ZM14.3587 10.7431C14.0543 11.9638 12.1743 11.3431 11.565 11.1913L12.1025 9.035C12.7118 9.18688 14.6762 9.47 14.3587 10.7431Z" fill="white"/>
</g>
</g>
</svg>
