<svg width="67" height="24" viewBox="0 0 67 24" fill="none" xmlns="http://www.w3.org/2000/svg">
<g clip-path="url(#clip0_2_1852)">
<path d="M4.194 15.624H8.226V18H1.116V5.364H4.194V15.624ZM20.5301 18.126C19.3421 18.126 18.2501 17.85 17.2541 17.298C16.2701 16.746 15.4841 15.978 14.8961 14.994C14.3201 13.998 14.0321 12.882 14.0321 11.646C14.0321 10.41 14.3201 9.3 14.8961 8.316C15.4841 7.332 16.2701 6.564 17.2541 6.012C18.2501 5.46 19.3421 5.184 20.5301 5.184C21.7181 5.184 22.8041 5.46 23.7881 6.012C24.7841 6.564 25.5641 7.332 26.1281 8.316C26.7041 9.3 26.9921 10.41 26.9921 11.646C26.9921 12.882 26.7041 13.998 26.1281 14.994C25.5521 15.978 24.7721 16.746 23.7881 17.298C22.8041 17.85 21.7181 18.126 20.5301 18.126ZM20.5301 15.318C21.5381 15.318 22.3421 14.982 22.9421 14.31C23.5541 13.638 23.8601 12.75 23.8601 11.646C23.8601 10.53 23.5541 9.642 22.9421 8.982C22.3421 8.31 21.5381 7.974 20.5301 7.974C19.5101 7.974 18.6941 8.304 18.0821 8.964C17.4821 9.624 17.1821 10.518 17.1821 11.646C17.1821 12.762 17.4821 13.656 18.0821 14.328C18.6941 14.988 19.5101 15.318 20.5301 15.318ZM41.9525 9.36C41.7245 8.94 41.3945 8.622 40.9625 8.406C40.5425 8.178 40.0445 8.064 39.4685 8.064C38.4725 8.064 37.6745 8.394 37.0745 9.054C36.4745 9.702 36.1745 10.572 36.1745 11.664C36.1745 12.828 36.4865 13.74 37.1105 14.4C37.7465 15.048 38.6165 15.372 39.7205 15.372C40.4765 15.372 41.1125 15.18 41.6285 14.796C42.1565 14.412 42.5405 13.86 42.7805 13.14H38.8745V10.872H45.5705V13.734C45.3425 14.502 44.9525 15.216 44.4005 15.876C43.8605 16.536 43.1705 17.07 42.3305 17.478C41.4905 17.886 40.5425 18.09 39.4865 18.09C38.2385 18.09 37.1225 17.82 36.1385 17.28C35.1665 16.728 34.4045 15.966 33.8525 14.994C33.3125 14.022 33.0425 12.912 33.0425 11.664C33.0425 10.416 33.3125 9.306 33.8525 8.334C34.4045 7.35 35.1665 6.588 36.1385 6.048C37.1105 5.496 38.2205 5.22 39.4685 5.22C40.9805 5.22 42.2525 5.586 43.2845 6.318C44.3285 7.05 45.0185 8.064 45.3545 9.36H41.9525ZM58.1115 18.126C56.9235 18.126 55.8315 17.85 54.8355 17.298C53.8515 16.746 53.0655 15.978 52.4775 14.994C51.9015 13.998 51.6135 12.882 51.6135 11.646C51.6135 10.41 51.9015 9.3 52.4775 8.316C53.0655 7.332 53.8515 6.564 54.8355 6.012C55.8315 5.46 56.9235 5.184 58.1115 5.184C59.2995 5.184 60.3855 5.46 61.3695 6.012C62.3655 6.564 63.1455 7.332 63.7095 8.316C64.2855 9.3 64.5735 10.41 64.5735 11.646C64.5735 12.882 64.2855 13.998 63.7095 14.994C63.1335 15.978 62.3535 16.746 61.3695 17.298C60.3855 17.85 59.2995 18.126 58.1115 18.126ZM58.1115 15.318C59.1195 15.318 59.9235 14.982 60.5235 14.31C61.1355 13.638 61.4415 12.75 61.4415 11.646C61.4415 10.53 61.1355 9.642 60.5235 8.982C59.9235 8.31 59.1195 7.974 58.1115 7.974C57.0915 7.974 56.2755 8.304 55.6635 8.964C55.0635 9.624 54.7635 10.518 54.7635 11.646C54.7635 12.762 55.0635 13.656 55.6635 14.328C56.2755 14.988 57.0915 15.318 58.1115 15.318Z" fill="#00C4C4"/>
</g>
<defs>
<clipPath id="clip0_2_1852">
<rect width="67" height="24" fill="white"/>
</clipPath>
</defs>
</svg>
