<svg width="116" height="164" viewBox="0 0 116 164" fill="none" xmlns="http://www.w3.org/2000/svg">
<g id="Mob free">
<g id="Rectangle 16" filter="url(#filter0_i_1_401)">
<path d="M0 11.4725L90.5055 0V57.3627V66.5211V93.506V105.165V163.165L0 149.143V11.4725Z" fill="#2B6FB3"/>
</g>
<path id="Rectangle 18" d="M0.446154 148.761V11.8653L89.422 0.506731V56.7253V65.266V96.6438V105.802V162.644L0.446154 148.761Z" fill="url(#paint0_linear_1_401)" stroke="#0C3D6E" stroke-width="0.892308"/>
<g id="Mask Group">
<mask id="mask0_1_401" style="mask-type:alpha" maskUnits="userSpaceOnUse" x="0" y="1" width="89" height="161">
<path id="Rectangle 19" d="M1.44445 148.347V12.319L88.4101 1.75892V56.4935V67.5118V91.2676V106.271V161.392L1.44445 148.347Z" fill="url(#paint1_linear_1_401)" stroke="#E1E1E1" stroke-width="0.892308"/>
</mask>
<g mask="url(#mask0_1_401)">
<g id="Group 119">
<ellipse id="Ellipse 3" cx="42.0258" cy="41.2885" rx="42.0258" ry="41.2885" transform="matrix(0.985556 0.16935 0 1 -12.5532 91.6238)" fill="#2F80ED"/>
<ellipse id="Ellipse 4" cx="35.7708" cy="35.1432" rx="35.7708" ry="35.1432" transform="matrix(0.985556 0.16935 0 1 33.8821 117.981)" fill="#00FFC2" fill-opacity="0.5"/>
</g>
</g>
</g>
<path id="Rectangle 17" d="M115.372 151.915L91.1331 162.216V105.165V93.506V65.8935V57.3627V0.863824L115.372 8.74163V151.915Z" fill="url(#paint2_linear_1_401)" stroke="#0C3D6F" stroke-width="1.25511"/>
</g>
<defs>
<filter id="filter0_i_1_401" x="0" y="0" width="90.5055" height="163.165" filterUnits="userSpaceOnUse" color-interpolation-filters="sRGB">
<feFlood flood-opacity="0" result="BackgroundImageFix"/>
<feBlend mode="normal" in="SourceGraphic" in2="BackgroundImageFix" result="shape"/>
<feColorMatrix in="SourceAlpha" type="matrix" values="0 0 0 0 0 0 0 0 0 0 0 0 0 0 0 0 0 0 127 0" result="hardAlpha"/>
<feOffset/>
<feGaussianBlur stdDeviation="1.91209"/>
<feComposite in2="hardAlpha" operator="arithmetic" k2="-1" k3="1"/>
<feColorMatrix type="matrix" values="0 0 0 0 0.0475347 0 0 0 0 0.167502 0 0 0 0 0.308333 0 0 0 1 0"/>
<feBlend mode="normal" in2="shape" result="effect1_innerShadow_1_401"/>
</filter>
<linearGradient id="paint0_linear_1_401" x1="44.9341" y1="0" x2="44.9341" y2="163.165" gradientUnits="userSpaceOnUse">
<stop stop-color="white"/>
<stop offset="1" stop-color="white"/>
</linearGradient>
<linearGradient id="paint1_linear_1_401" x1="46.1892" y1="1.89023" x2="46.1892" y2="163.16" gradientUnits="userSpaceOnUse">
<stop stop-color="white"/>
<stop offset="1" stop-color="#E9E9E9"/>
</linearGradient>
<linearGradient id="paint2_linear_1_401" x1="86.6029" y1="97.8989" x2="116" y2="99.4286" gradientUnits="userSpaceOnUse">
<stop stop-color="#2F80ED"/>
<stop offset="1" stop-color="#0452BB"/>
</linearGradient>
</defs>
</svg>
