<svg width="16" height="16" viewBox="0 0 16 16" fill="none" xmlns="http://www.w3.org/2000/svg">
<g id="american-express-card 1">
<g clip-path="url(#clip0_1_345)">
<g id="Group 931">
<path id="Vector" fill-rule="evenodd" clip-rule="evenodd" d="M0.946616 15.1781V8.2505L0.80719 8.1469V6.86255L1.01 5.88951V0.830078H14.9775V8.40628L15.1552 8.67874V10.9748L14.9523 11.2732V15.1781H0.946616Z" fill="white"/>
<path id="Vector_2" fill-rule="evenodd" clip-rule="evenodd" d="M14.0422 9.17415C13.952 9.25161 13.9131 9.36786 13.9131 9.50989C13.9131 9.98764 14.3006 10.0004 14.675 10.0004H14.7396C14.8298 10.0134 14.8687 10.0263 14.9073 10.0522C14.9462 10.0909 14.9718 10.1294 14.9718 10.194C14.9718 10.2458 14.9462 10.2975 14.9073 10.3231C14.8686 10.362 14.8171 10.3749 14.7266 10.3749H13.9649V10.6848H14.7266C15.1398 10.6848 15.3464 10.5168 15.3464 10.1683C15.3464 10.0133 15.3074 9.91019 15.23 9.8326C15.1398 9.74213 15.0106 9.70346 14.7781 9.70346L14.5588 9.69045C14.4813 9.69045 14.4424 9.69045 14.3908 9.67743C14.3263 9.65178 14.2747 9.58721 14.2747 9.50976C14.2747 9.44519 14.3006 9.39364 14.3522 9.36773C14.4037 9.32881 14.4554 9.32881 14.5329 9.32881H15.2559V9.01898H14.4683C14.2747 9.01911 14.1327 9.07079 14.0422 9.17415Z" fill="white"/>
<path id="Vector_3" fill-rule="evenodd" clip-rule="evenodd" d="M15.3726 10.1684C15.3726 10.5428 15.1403 10.7104 14.727 10.7104H13.9394V10.349H14.727C14.8045 10.349 14.8561 10.336 14.8947 10.2975C14.9206 10.2845 14.9336 10.2459 14.9336 10.194C14.9336 10.1425 14.9206 10.1038 14.8947 10.0779C14.856 10.0522 14.8175 10.0392 14.7399 10.0392C14.3653 10.0262 13.8749 10.0522 13.8749 9.50993C13.8749 9.25178 14.0299 8.99351 14.4687 8.99351H15.2822V9.3679H14.5333C14.4558 9.3679 14.4172 9.3679 14.3654 9.39381C14.3267 9.41945 14.3138 9.45812 14.3138 9.50993C14.3138 9.57449 14.3527 9.62605 14.4043 9.63906C14.443 9.65208 14.4948 9.66471 14.5593 9.66471H14.7787C15.0112 9.67772 15.1533 9.71652 15.2436 9.80673C15.3339 9.8972 15.3726 10.0004 15.3726 10.1684ZM13.6426 9.80673C13.5522 9.71652 13.3971 9.6776 13.1778 9.66471H12.9582C12.8807 9.66471 12.842 9.65195 12.7902 9.63906C12.7387 9.62605 12.7 9.57449 12.7 9.50993C12.7 9.45812 12.7257 9.41945 12.7646 9.39381C12.8032 9.3679 12.8548 9.3679 12.9323 9.3679H13.6812V8.99351H12.8547C12.4287 8.99351 12.2737 9.25166 12.2737 9.50993C12.2737 10.0522 12.7514 10.0263 13.1387 10.0392C13.2033 10.0392 13.2548 10.0522 13.2807 10.0779C13.3066 10.1038 13.3323 10.1425 13.3323 10.194C13.3323 10.2458 13.3066 10.2845 13.2807 10.2975C13.2421 10.3362 13.1903 10.349 13.1131 10.349H12.3252V10.7104H13.1257C13.5389 10.7104 13.7713 10.5428 13.7713 10.1684C13.7715 10.0004 13.72 9.8972 13.6426 9.80673ZM12.0802 10.3621H11.112V10.0135H12.0546V9.66484H11.112V9.35501H12.0802V8.99364H10.6988V10.7106H12.0802V10.3621ZM10.2598 9.07084C10.1307 9.00627 9.97565 8.99364 9.76906 8.99364H8.81381V10.7106H9.227V10.091H9.67884C9.82087 10.091 9.91108 10.104 9.97565 10.1685C10.0531 10.2459 10.0402 10.4007 10.0402 10.4912V10.7106H10.4534V10.3751C10.4534 10.22 10.4404 10.1426 10.3888 10.065C10.3502 10.0134 10.2727 9.94888 10.1822 9.91022C10.2713 9.8732 10.3472 9.81034 10.4001 9.72975C10.4531 9.64916 10.4807 9.55454 10.4793 9.45812C10.4794 9.26442 10.389 9.1483 10.2598 9.07084ZM7.93589 8.99351H6.61901L6.1026 9.56148L5.59907 8.99351H3.93345V10.7104H5.57317L6.08958 10.1425L6.59311 10.7104H7.39357V10.1425H7.90999C8.27149 10.1425 8.62011 10.0392 8.62011 9.56148C8.62011 9.08373 8.2586 8.99351 7.93589 8.99351ZM9.93712 9.70363C9.87255 9.72928 9.80798 9.72928 9.73052 9.72928H9.22712V9.35489H9.74354C9.80811 9.35489 9.88556 9.35489 9.93724 9.38079C9.98879 9.40644 10.0147 9.45799 10.0147 9.53557C10.0147 9.61316 9.98867 9.66471 9.93712 9.70363ZM7.93589 9.78108H7.39357V9.35489H7.93589C8.07792 9.35489 8.18128 9.40644 8.18128 9.56148C8.18128 9.70363 8.0908 9.78108 7.93589 9.78108ZM6.36074 9.85854L6.9934 9.1742V10.5556L6.36074 9.85854ZM5.35369 10.3621H4.34663V10.0135H5.25045V9.66484H4.34663V9.35501H5.37959L5.83144 9.85867L5.35369 10.3621ZM14.2362 7.75397H13.6553L12.8807 6.46287V7.75397H12.0416L11.8736 7.36656H11.0215L10.8667 7.75397H10.389C10.1824 7.75397 9.93712 7.71518 9.79509 7.56027C9.65307 7.41824 9.57548 7.22454 9.57548 6.9017C9.57548 6.65645 9.6144 6.42408 9.79509 6.23038C9.92423 6.10124 10.1308 6.03667 10.4149 6.03667H10.8152V6.39818H10.4276C10.2728 6.39818 10.1954 6.42408 10.1049 6.50154C10.0403 6.57899 9.9888 6.72101 9.9888 6.9017C9.9888 7.08252 10.0277 7.21165 10.1049 7.302C10.1695 7.36656 10.2859 7.39234 10.3891 7.39234H10.5698L11.1508 6.03667H11.7705L12.4676 7.6635V6.0368H13.0874L13.8104 7.23756V6.0368H14.2364V7.75397H14.2362ZM9.36915 6.0368H8.95596V7.75397H9.36915V6.0368ZM8.50412 6.11426C8.37498 6.0368 8.21994 6.0368 8.01335 6.0368H7.05797V7.75397H7.47116V7.1342H7.91012C8.0649 7.1342 8.15537 7.14721 8.20705 7.19876C8.28451 7.28911 8.28451 7.43113 8.28451 7.53449V7.75397H8.69769V7.41824C8.69769 7.26333 8.68468 7.18588 8.62024 7.10842C8.59433 7.05674 8.51675 6.99217 8.42653 6.95351C8.52976 6.91472 8.71071 6.77269 8.71071 6.50154C8.71071 6.30796 8.63312 6.19184 8.50412 6.11426ZM6.7738 7.39247H5.81842V7.05687H6.74802V6.70825H5.81842V6.39843H6.7738V6.03693H5.40536V7.7541H6.77392V7.39247H6.7738ZM5.09554 6.0368H4.4112L3.92056 7.19876L3.37824 6.0368H2.70691V7.66362L2.00968 6.0368H1.40292L0.667023 7.75397H1.10598L1.27378 7.36656H2.12593L2.28084 7.75397H3.12009V6.41119L3.71397 7.75397H4.07547L4.66947 6.41119V7.75397H5.09554V6.0368ZM11.7317 7.01808L11.4476 6.33386L11.1764 7.01808H11.7317ZM8.16839 6.74692C8.11684 6.77269 8.05201 6.77269 7.97468 6.77269H7.47116V6.3983H7.97468C8.05201 6.3983 8.12947 6.3983 8.16839 6.42421C8.23296 6.44998 8.2586 6.50166 8.2586 6.57912C8.2586 6.65657 8.23296 6.70813 8.16839 6.74692ZM1.41581 7.01808L1.69985 6.33386L1.9839 7.01808H1.41581ZM15.2823 0.665955H0.667023V6.83726L1.15766 5.7012H2.22929L2.37131 5.98525V5.7012H3.62362L3.89478 6.30796L4.16594 5.7012H8.1555C8.33619 5.7012 8.50412 5.72698 8.62036 5.83034V5.7012H9.71776V5.83034C9.89845 5.72698 10.1309 5.7012 10.4021 5.7012H11.9773L12.132 5.98525V5.7012H13.2941L13.4618 5.98525V5.7012H14.598V8.08957H13.4488L13.2294 7.72807V8.08957H11.7964L11.6414 7.71518H11.2798L11.125 8.08957H10.3761C10.0793 8.08957 9.85966 8.025 9.71764 7.94767V8.08957H7.93589V7.54738C7.93589 7.46992 7.923 7.46992 7.87132 7.46992H7.80676V8.08957H4.37241V7.79263L4.25629 8.08957H3.53328L3.41703 7.80552V8.08957H2.03558L1.88067 7.71518H1.51917L1.36425 8.08957H0.667023V15.3326H15.2823V10.943C15.1144 11.0205 14.8948 11.0592 14.6755 11.0592H13.6167V10.9041C13.4876 10.9946 13.2681 11.0592 13.0614 11.0592H9.70449V10.4912C9.70449 10.4266 9.69173 10.4266 9.62704 10.4266H9.57548V11.0592H8.4652V10.4007C8.28451 10.4782 8.0649 10.4912 7.8971 10.4912H7.75508V11.0592H6.42531L6.08958 10.6848L5.74096 11.0592H3.57207V8.65791H5.77976L6.1026 9.01929L6.4382 8.65791H7.923C8.0908 8.65791 8.37498 8.67067 8.50412 8.78705V8.65791H9.821C9.95013 8.65791 10.2213 8.68356 10.389 8.78705V8.65791H12.3903V8.78705C12.4935 8.69658 12.7001 8.65791 12.8808 8.65791H14.0041V8.78705C14.1202 8.70959 14.2883 8.65791 14.5205 8.65791H15.2825V0.665955H15.2823Z" fill="#0077A6"/>
</g>
</g>
</g>
<defs>
<clipPath id="clip0_1_345">
<path d="M0 4C0 1.79086 1.79086 0 4 0H12C14.2091 0 16 1.79086 16 4V16H0V4Z" fill="white"/>
</clipPath>
</defs>
</svg>
