<svg width="24" height="24" viewBox="0 0 24 24" fill="none" xmlns="http://www.w3.org/2000/svg">
<path d="M19.1 20.6641C19.8608 20.6641 20.48 20.0449 20.48 19.2841V16.0641C20.48 15.3032 19.8608 14.6841 19.1 14.6841C18.0236 14.6841 16.9656 14.5148 15.9536 14.1808C15.7117 14.1044 15.4536 14.0952 15.2068 14.154C14.96 14.2128 14.7339 14.3375 14.5524 14.5148L13.2276 15.8396C10.9378 14.5965 9.0573 12.7166 7.81343 10.4272L9.12719 9.10519C9.50623 8.75376 9.64239 8.21924 9.48047 7.70496C9.14719 6.69139 8.97823 5.63103 8.97999 4.56408C8.97999 3.80324 8.36083 3.18408 7.59999 3.18408H4.38C3.61916 3.18408 3 3.80324 3 4.56408C3 13.4421 10.222 20.6641 19.1 20.6641ZM4.38 4.10408H7.59999C7.72199 4.10408 7.83899 4.15255 7.92526 4.23881C8.01153 4.32508 8.05999 4.44208 8.05999 4.56408C8.05999 5.73892 8.24399 6.8926 8.60555 7.98648C8.63212 8.06586 8.63522 8.15121 8.6145 8.23231C8.59377 8.31341 8.5501 8.38681 8.48871 8.44372L6.68919 10.2524C8.19523 13.2222 10.4198 15.4467 13.4033 16.9657L15.1964 15.1717C15.2576 15.1111 15.3341 15.0684 15.4177 15.0479C15.5013 15.0275 15.5889 15.0302 15.6711 15.0557C16.7715 15.4201 17.9251 15.6041 19.1 15.6041C19.353 15.6041 19.56 15.8111 19.56 16.0641V19.2841C19.56 19.5371 19.353 19.7441 19.1 19.7441C10.7298 19.7441 3.92 12.9342 3.92 4.56408C3.92 4.44208 3.96846 4.32508 4.05473 4.23881C4.141 4.15255 4.258 4.10408 4.38 4.10408Z" fill="#2F80ED"/>
<path fill-rule="evenodd" clip-rule="evenodd" d="M14.2292 7.01081C13.7724 6.91944 13.3042 6.91557 12.849 6.99754L12.6761 6.01749C13.2528 5.91411 13.8458 5.91925 14.4244 6.03497L14.4638 6.04302C15.2639 6.21018 16.0067 6.5835 16.6184 7.12629C17.2301 7.66909 17.6892 8.36218 17.9503 9.13668L17.963 9.17481C18.1118 9.62883 18.1897 10.1009 18.1959 10.5746H17.2007C17.1945 10.2057 17.1332 9.83828 17.0173 9.48472C16.8134 8.86236 16.4478 8.30535 15.9579 7.87067C15.468 7.436 14.8715 7.13926 14.2292 7.01081Z" fill="#2F80ED"/>
<path fill-rule="evenodd" clip-rule="evenodd" d="M14.9096 4.1749C14.0727 4.00753 13.215 4.00031 12.3811 4.15025L12.2 3.12281C12.6069 3.04983 13.0188 3.00927 13.4317 3.00142C13.9939 2.99071 14.5581 3.04065 15.1142 3.15188C16.4726 3.42358 17.7345 4.05127 18.7708 4.97074C19.807 5.89021 20.5804 7.06846 21.0118 8.38494C21.1885 8.92387 21.3052 9.47804 21.3614 10.0376C21.3842 10.2637 21.3971 10.4907 21.4 10.7179H20.3566C20.3464 10.0383 20.2339 9.36123 20.0204 8.70983C19.6466 7.56898 18.9764 6.54792 18.0783 5.75111C17.1803 4.95431 16.0868 4.41035 14.9096 4.1749Z" fill="#2F80ED"/>
</svg>
