<svg width="24" height="24" viewBox="0 0 24 24" fill="none" xmlns="http://www.w3.org/2000/svg">
<g id="email-2 1">
<g id="Group">
<path id="Vector" d="M21.8517 10.6835L21.8518 10.6834L19.2979 8.99034V3.33121C19.2979 3.14828 19.1496 2.99997 18.9667 2.99997H5.03286C4.84993 2.99997 4.70162 3.14828 4.70162 3.33121V8.99074L2.14822 10.6834L2.14826 10.6835C2.05896 10.7428 2 10.8442 2 10.9595V21.2174C2 21.4004 2.14831 21.5487 2.33124 21.5487H21.6688C21.8517 21.5487 22 21.4004 22 21.2174V10.9595C22 10.8442 21.941 10.7428 21.8517 10.6835V10.6835ZM4.70162 11.8419L3.66262 11.2908H4.70162V11.8419ZM2.66249 11.5102L10.28 15.5509L2.66249 20.6002V11.5102V11.5102ZM11.9999 15.2056L20.5697 20.8862H3.43013L11.9999 15.2056V15.2056ZM13.7199 15.5509L21.3375 11.5102V20.6004L13.7199 15.5509V15.5509ZM19.2979 11.2908H20.3374L19.2979 11.8421V11.2908ZM20.5697 10.6283H19.2979V9.78515L20.5697 10.6283ZM18.6355 3.66245V12.1935L13.0915 15.1344L12.1828 14.5321C12.0719 14.4585 11.9277 14.4585 11.8168 14.5321L10.9084 15.1343L5.3641 12.1933V3.66245H18.6355V3.66245ZM4.70162 10.6283H3.43044L4.70162 9.78559V10.6283Z" fill="#2F80ED" stroke="#2F80ED" stroke-width="0.24"/>
<path id="Vector_2" d="M11.9997 11.7111H14.6388C14.8218 11.7111 14.9701 11.5628 14.9701 11.3798C14.9701 11.1969 14.8218 11.0486 14.6388 11.0486H11.9997C10.7272 11.0486 9.69191 10.0133 9.69191 8.74077V8.64303C9.69191 7.37049 10.7272 6.3352 11.9997 6.3352C13.2723 6.3352 14.3076 7.37049 14.3076 8.64303V8.8874C14.3076 9.16286 14.0835 9.387 13.808 9.387C13.5325 9.387 13.3084 9.16291 13.3084 8.8874V8.42313C13.3084 7.63416 12.6665 6.99225 11.8775 6.99225C11.0886 6.99225 10.4467 7.63411 10.4467 8.42313C10.4467 9.21211 11.0886 9.85397 11.8775 9.85397C12.2383 9.85397 12.5681 9.71948 12.82 9.49835C13.0251 9.82884 13.3912 10.0494 13.808 10.0494C14.4487 10.0494 14.9701 9.52816 14.9701 8.88736V8.64299C14.9701 7.00515 13.6376 5.67267 11.9997 5.67267C10.3619 5.67267 9.02942 7.00515 9.02942 8.64299V8.74073C9.02942 10.3786 10.3619 11.7111 11.9997 11.7111V11.7111ZM11.8775 9.19148C11.4539 9.19148 11.1092 8.84681 11.1092 8.42313C11.1092 7.99945 11.4539 7.65474 11.8775 7.65474C12.3012 7.65474 12.6459 7.99945 12.6459 8.42313C12.6459 8.84681 12.3012 9.19148 11.8775 9.19148Z" fill="#2F80ED" stroke="#2F80ED" stroke-width="0.24"/>
</g>
</g>
</svg>
