<svg width="24" height="24" viewBox="0 0 24 24" fill="none" xmlns="http://www.w3.org/2000/svg">
<g id="Icon/inst">
<path id="Vector" d="M7.68 22.08H16.32C19.501 22.08 22.08 19.501 22.08 16.32V7.68004C22.08 4.49908 19.501 1.92004 16.32 1.92004H7.68C4.49904 1.92004 1.92 4.49908 1.92 7.68004V16.32C1.92 19.501 4.49904 22.08 7.68 22.08Z" stroke="white" stroke-miterlimit="10"/>
<path id="Vector_2" d="M12 7.19995C10.727 7.19995 9.50606 7.70566 8.60588 8.60584C7.70571 9.50601 7.2 10.7269 7.2 12C7.2 13.273 7.70571 14.4939 8.60588 15.3941C9.50606 16.2942 10.727 16.7999 12 16.7999C13.273 16.7999 14.4939 16.2942 15.3941 15.3941C16.2943 14.4939 16.8 13.273 16.8 12C16.8 10.7269 16.2943 9.50601 15.3941 8.60584C14.4939 7.70566 13.273 7.19995 12 7.19995Z" stroke="white" stroke-miterlimit="10"/>
<path id="Vector_3" d="M17.76 5.28003C17.5054 5.28003 17.2612 5.38117 17.0812 5.56121C16.9011 5.74124 16.8 5.98542 16.8 6.24003C16.8 6.49464 16.9011 6.73882 17.0812 6.91885C17.2612 7.09889 17.5054 7.20003 17.76 7.20003C18.0146 7.20003 18.2588 7.09889 18.4388 6.91885C18.6189 6.73882 18.72 6.49464 18.72 6.24003C18.72 5.98542 18.6189 5.74124 18.4388 5.56121C18.2588 5.38117 18.0146 5.28003 17.76 5.28003Z" fill="white"/>
</g>
</svg>
