<svg width="69" height="24" viewBox="0 0 69 24" fill="none" xmlns="http://www.w3.org/2000/svg">
<g id="paypal">
<g id="Group 237">
<path id="Vector" d="M51.398 8.17383H48.0191C47.8204 8.17383 47.6216 8.37259 47.5222 8.57135L46.1309 17.3168C46.1309 17.5155 46.2303 17.6149 46.4291 17.6149H48.2179C48.4166 17.6149 48.516 17.5155 48.516 17.3168L48.9135 14.8323C48.9135 14.6335 49.1123 14.4348 49.4104 14.4348H50.5036C52.7893 14.4348 54.0813 13.3416 54.3794 11.1552C54.5782 10.2608 54.3794 9.46577 53.9819 8.96887C53.3856 8.47197 52.4912 8.17383 51.398 8.17383ZM51.7955 11.4534C51.5968 12.6459 50.7024 12.6459 49.808 12.6459H49.2117L49.6092 10.3602C49.6092 10.2608 49.7086 10.1614 49.9073 10.1614H50.1061C50.7024 10.1614 51.2986 10.1614 51.5968 10.5589C51.7955 10.6583 51.7955 10.9565 51.7955 11.4534Z" fill="#E2ECFB"/>
<g id="Group">
<path id="Vector_2" d="M27.05 8.17383H23.6711C23.4723 8.17383 23.2736 8.37259 23.1742 8.57135L21.7829 17.3168C21.7829 17.5155 21.8823 17.6149 22.081 17.6149H23.6711C23.8699 17.6149 24.0686 17.4162 24.168 17.2174L24.5655 14.8323C24.5655 14.6335 24.7643 14.4348 25.0624 14.4348H26.1556C28.4413 14.4348 29.7333 13.3416 30.0314 11.1552C30.2301 10.2608 30.0314 9.46577 29.6339 8.96887C29.0376 8.47197 28.2426 8.17383 27.05 8.17383ZM27.4475 11.4534C27.2488 12.6459 26.3544 12.6459 25.4599 12.6459H24.963L25.3606 10.3602C25.3606 10.2608 25.4599 10.1614 25.6587 10.1614H25.8575C26.4537 10.1614 27.05 10.1614 27.3481 10.5589C27.4475 10.6583 27.5469 10.9565 27.4475 11.4534Z" fill="#E2ECFB"/>
<path id="Vector_3" d="M37.286 11.354H35.6959C35.5965 11.354 35.3978 11.4534 35.3978 11.5528L35.2984 12.0497L35.199 11.8509C34.8015 11.354 34.1058 11.1553 33.3108 11.1553C31.522 11.1553 29.9319 12.5466 29.6338 14.4348C29.435 15.4286 29.7332 16.323 30.2301 16.9193C30.727 17.5156 31.4226 17.7144 32.317 17.7144C33.8077 17.7144 34.6027 16.8199 34.6027 16.8199L34.5033 17.3168C34.5033 17.5156 34.6027 17.615 34.8015 17.615H36.2922C36.4909 17.615 36.6897 17.4162 36.7891 17.2175L37.6835 11.6522C37.5841 11.5528 37.3853 11.354 37.286 11.354ZM35.0002 14.5342C34.8015 15.4286 34.1058 16.1243 33.112 16.1243C32.6152 16.1243 32.2176 15.9255 32.0189 15.7268C31.8201 15.4286 31.7207 15.0311 31.7207 14.5342C31.8201 13.6398 32.6152 12.9441 33.5096 12.9441C34.0065 12.9441 34.3046 13.1429 34.6027 13.3416C34.9009 13.6398 35.0002 14.1367 35.0002 14.5342Z" fill="#E2ECFB"/>
</g>
<path id="Vector_4" d="M61.5343 11.3539H59.9442C59.8448 11.3539 59.6461 11.4533 59.6461 11.5527L59.5467 12.0496L59.4473 11.8508C59.0498 11.3539 58.3541 11.1552 57.5591 11.1552C55.7703 11.1552 54.1802 12.5465 53.8821 14.4347C53.6833 15.4285 53.9815 16.3229 54.4784 16.9192C54.9752 17.5155 55.6709 17.7142 56.5653 17.7142C58.056 17.7142 58.851 16.8198 58.851 16.8198L58.7516 17.3167C58.7516 17.5155 58.851 17.6149 59.0498 17.6149H60.5405C60.7392 17.6149 60.938 17.4161 61.0374 17.2173L61.9318 11.6521C61.8324 11.5527 61.733 11.3539 61.5343 11.3539ZM59.2485 14.5341C59.0498 15.4285 58.3541 16.1242 57.3603 16.1242C56.8635 16.1242 56.4659 15.9254 56.2672 15.7266C56.0684 15.4285 55.969 15.031 55.969 14.5341C56.0684 13.6397 56.8634 12.944 57.7579 12.944C58.2548 12.944 58.5529 13.1427 58.851 13.3415C59.2485 13.6396 59.3479 14.1366 59.2485 14.5341Z" fill="#E2ECFB"/>
<path id="Vector_5" d="M45.932 11.354H44.2425C44.0438 11.354 43.9444 11.4534 43.845 11.5528L41.6586 14.9316L40.6648 11.7515C40.5655 11.5528 40.4661 11.4534 40.1679 11.4534H38.5779C38.3791 11.4534 38.2797 11.6521 38.2797 11.8509L40.0686 17.118L38.3791 19.5031C38.2797 19.7018 38.3791 20 38.5779 20H40.1679C40.3667 20 40.4661 19.9006 40.5655 19.8012L46.0314 11.9503C46.3295 11.6521 46.1307 11.354 45.932 11.354Z" fill="#E2ECFB"/>
<path id="Vector_6" d="M63.4229 8.472L62.0316 17.4161C62.0316 17.6149 62.1309 17.7143 62.3297 17.7143H63.721C63.9198 17.7143 64.1185 17.5155 64.2179 17.3168L65.6092 8.57138C65.6092 8.37262 65.5098 8.27324 65.3111 8.27324H63.721C63.6216 8.17386 63.5222 8.27324 63.4229 8.472Z" fill="#E2ECFB"/>
<path id="Vector_7" d="M14.4286 5.19255C13.733 4.39752 12.441 4 10.6522 4H5.68324C5.38511 4 5.08697 4.29814 4.98759 4.59627L3 17.615C3 17.9131 3.19876 18.1119 3.39752 18.1119H6.47828L7.27331 13.2423V13.441C7.37269 13.1429 7.67083 12.8448 7.96897 12.8448H9.45966C12.3417 12.8448 14.528 11.6522 15.2237 8.37269C15.2237 8.27331 15.2237 8.17393 15.2237 8.07455C15.1243 8.07455 15.1243 8.07455 15.2237 8.07455C15.323 6.78262 15.1243 5.98759 14.4286 5.19255Z" fill="#E2ECFB"/>
<path id="Vector_8" d="M15.1245 8.07446C15.1245 8.17384 15.1245 8.27322 15.1245 8.3726C14.4288 11.7515 12.2425 12.8447 9.3605 12.8447H7.86981C7.57167 12.8447 7.27353 13.1428 7.17415 13.441L6.18036 19.5031C6.18036 19.7019 6.27974 19.9006 6.57788 19.9006H9.16174C9.45988 19.9006 9.75802 19.7019 9.75802 19.4037V19.3043L10.2549 16.2236V16.0248C10.2549 15.7267 10.5531 15.5279 10.8512 15.5279H11.2487C13.7332 15.5279 15.7208 14.5341 16.2177 11.5527C16.4164 10.3602 16.3171 9.26702 15.7208 8.57136C15.6214 8.3726 15.4226 8.17384 15.1245 8.07446Z" fill="#E2ECFB"/>
<path id="Vector_9" d="M14.4285 7.77641C14.3291 7.77641 14.2298 7.67703 14.1304 7.67703C14.031 7.67703 13.9316 7.67703 13.8322 7.57765C13.4347 7.47827 13.0372 7.47827 12.5403 7.47827H8.6645C8.56513 7.47827 8.46575 7.47827 8.36637 7.57765C8.16761 7.67703 8.06823 7.87579 8.06823 8.07455L7.27319 13.2423V13.441C7.37257 13.1429 7.67071 12.8448 7.96885 12.8448H9.45954C12.3415 12.8448 14.5279 11.6522 15.2235 8.37269C15.2235 8.27331 15.2235 8.17393 15.3229 8.07455C15.1242 7.97517 15.0248 7.87579 14.826 7.87579C14.5279 7.77641 14.5279 7.77641 14.4285 7.77641Z" fill="white"/>
</g>
</g>
</svg>
