<svg width="60" height="24" viewBox="0 0 60 24" fill="none" xmlns="http://www.w3.org/2000/svg">
<g id="cib:apple-pay">
<path id="Vector" d="M14.7989 4.57865C14.2329 5.25305 13.3312 5.78745 12.431 5.70917C12.3121 4.79994 12.7607 3.82598 13.2785 3.22234C13.843 2.5344 14.8305 2.04064 15.6314 2C15.7262 2.94987 15.3559 3.88319 14.8004 4.57865H14.7989ZM15.6223 5.8883C14.3142 5.80852 13.1912 6.63947 12.571 6.63947C11.9373 6.63947 10.9874 5.92744 9.95321 5.95153C8.61195 5.96809 7.358 6.73431 6.67608 7.96718C5.25654 10.4194 6.30727 14.0503 7.67111 16.0494C8.33798 17.0369 9.13581 18.1192 10.188 18.0891C11.1831 18.0485 11.5835 17.4313 12.7833 17.4313C13.9981 17.4313 14.3428 18.0891 15.4026 18.065C16.4909 18.0485 17.1804 17.0775 17.8472 16.09C18.6074 14.9685 18.9205 13.8696 18.9371 13.8154C18.9205 13.7914 16.8281 12.9845 16.8131 10.5534C16.7965 8.51362 18.4584 7.54268 18.5292 7.48698C17.5958 6.07647 16.1221 5.92744 15.6208 5.88981L15.6223 5.8883ZM23.1731 3.1275V17.9627H25.4537V12.8912H28.6074C31.4841 12.8912 33.5073 10.8921 33.5073 8.00632C33.5073 5.11456 31.5248 3.12901 28.6857 3.12901L23.1731 3.1275ZM25.4537 5.07241H28.0806C30.0556 5.07241 31.1861 6.13819 31.1861 8.01234C31.1861 9.8865 30.0556 10.9613 28.0655 10.9613H25.4537V5.07241ZM37.6606 18.0726C39.0952 18.0726 40.4199 17.344 41.025 16.1818H41.0732V17.9627H43.1807V10.5759C43.1807 8.44438 41.4887 7.05796 38.8769 7.05796C36.4623 7.05796 34.674 8.46094 34.6122 10.3818H36.658C36.8311 9.465 37.6621 8.86888 38.8152 8.86888C40.2106 8.86888 40.9874 9.52672 40.9874 10.7355V11.5499L38.1498 11.723C35.4989 11.8871 34.0718 12.977 34.0718 14.8827C34.0718 16.8036 35.5471 18.0741 37.6621 18.0741L37.6606 18.0726ZM38.2808 16.3158C37.0645 16.3158 36.2892 15.7272 36.2892 14.827C36.2892 13.8937 37.0343 13.3443 38.4524 13.257L40.9859 13.1004V13.9389C40.9859 15.3283 39.8177 16.3158 38.2717 16.3158H38.2808ZM45.9957 22C48.213 22 49.2577 21.1374 50.167 18.5422L54.1652 7.20548H51.8529L49.1719 15.9621H49.1238L46.4427 7.20548H44.0598L47.918 18.0018L47.7133 18.6596C47.3595 19.7661 46.7965 20.1951 45.7924 20.1951C45.6118 20.1951 45.2671 20.1725 45.1256 20.1575V21.9383C45.258 21.9759 45.824 21.9925 45.9881 21.9925L45.9957 22Z" fill="white"/>
</g>
</svg>
