<svg width="21" height="16" viewBox="0 0 21 16" fill="none" xmlns="http://www.w3.org/2000/svg">
<g id="bx:bxl-visa">
<path id="Vector" d="M15.2658 5.60114C14.7777 5.42048 14.2619 5.32983 13.7424 5.33345C12.0627 5.33345 10.8764 6.19305 10.868 7.427C10.8575 8.33353 11.711 8.84439 12.3566 9.14727C13.0191 9.45869 13.2406 9.65493 13.2385 9.93329C13.2343 10.3567 12.7094 10.5487 12.2212 10.5487C11.5504 10.5487 11.184 10.4537 10.6202 10.2159L10.4113 10.1167L10.173 11.5373C10.5814 11.7101 11.3173 11.8583 12.0774 11.8711C13.8632 11.8711 15.0306 11.0169 15.0442 9.70399C15.0589 8.97983 14.597 8.43272 13.6249 7.98052C13.0338 7.68723 12.6674 7.49099 12.6674 7.19343C12.6674 6.93001 12.9813 6.64845 13.6375 6.64845C14.0741 6.63772 14.5081 6.72095 14.9109 6.89268L15.0684 6.96414L15.3067 5.59154L15.2658 5.60114ZM19.6247 5.44863H18.3124C17.904 5.44863 17.5964 5.56275 17.4179 5.97442L14.8941 11.7826H16.6799L17.0368 10.8302L19.2163 10.8324C19.2678 11.0553 19.4252 11.7826 19.4252 11.7826H21L19.6247 5.44863ZM8.45228 5.3953H10.1541L9.08954 11.7325H7.38984L8.45228 5.39317V5.3953ZM4.13218 8.88811L4.30855 9.76798L5.9715 5.44863H7.77408L5.09594 11.7741H3.29755L1.82778 6.41808C1.80397 6.32977 1.74807 6.25392 1.67135 6.20585C1.1416 5.92785 0.580296 5.71689 0 5.57768L0.0230965 5.44436H2.76214C3.13378 5.45929 3.43298 5.57768 3.53272 5.98082L4.13113 8.89131V8.88811H4.13218ZM17.525 9.53442L18.2032 7.76188C18.1948 7.78108 18.3428 7.39607 18.4289 7.15824L18.5455 7.70536L18.9392 9.53335H17.524V9.53442H17.525Z" fill="#1239B4"/>
</g>
</svg>
