<svg width="24" height="24" viewBox="0 0 24 24" fill="none" xmlns="http://www.w3.org/2000/svg">
<g id="Icon/fb">
<path id="Vector" d="M12.48 21.6V13.92H11.04V11.52H12.48V10.08C12.48 8.15997 13.44 6.71997 15.36 6.71997C16.7534 6.71997 17.76 7.19997 17.76 7.19997V9.11997H16.8C15.7704 9.11997 15.36 9.36189 15.36 10.08V11.52H17.76L17.28 13.92H15.36V21.6" stroke="white" stroke-miterlimit="10" stroke-linecap="round"/>
<path id="Vector_2" d="M4.31999 21.6H19.68C20.7403 21.6 21.6 20.7403 21.6 19.68V4.32002C21.6 3.2597 20.7403 2.40002 19.68 2.40002H4.31999C3.25967 2.40002 2.39999 3.2597 2.39999 4.32002V19.68C2.39999 20.7403 3.25967 21.6 4.31999 21.6Z" stroke="white" stroke-miterlimit="10" stroke-linecap="round" stroke-linejoin="round"/>
</g>
</svg>
