<svg width="21" height="16" viewBox="0 0 21 16" fill="none" xmlns="http://www.w3.org/2000/svg">
<g id="iconfinder_93_Discover_Credit_Card_logo_logos_4373195 1">
<g id="x39 3 discover x2C  Credit card">
<g id="Group">
<path id="Vector" d="M19.3036 4.90997C19.7841 4.81545 20.0461 4.50908 20.0461 4.03255C20.0461 2.95467 18.8429 3.10973 17.9455 3.10973L17.9455 6.21099H18.5809V4.97052H18.6683L19.5498 6.21099H20.3282L19.3036 4.90997ZM18.7674 4.54691H18.5808V3.60523H18.7754C19.1764 3.60523 19.3949 3.76401 19.3949 4.06285C19.3949 4.38051 19.1764 4.54691 18.7674 4.54691Z" fill="#081D31"/>
<path id="Vector_2" d="M15.7255 3.11349H17.5245V3.64296H16.361V4.33134H17.4848V4.85318H16.361V5.69282H17.5245V6.21471H15.7255V3.11349Z" fill="#081D31"/>
<path id="Vector_3" d="M12.9974 3.11349L13.8671 5.20114L14.7487 3.11349H15.4436L14.0339 6.29793H13.6924L12.3025 3.11349H12.9974Z" fill="#081D31"/>
<path id="Vector_4" d="M10.7776 3.00012C11.7585 3.00012 12.5487 3.75649 12.5487 4.68689C12.5487 5.62105 11.7545 6.3737 10.7776 6.3737C9.79673 6.3737 9.0065 5.61723 9.0065 4.68689C9.00645 3.75273 9.80079 3.00012 10.7776 3.00012Z" fill="url(#paint0_linear_1_325)"/>
<path id="Vector_5" d="M8.81983 3.23071V3.9493C8.0217 3.18912 6.9614 3.77161 6.9614 4.66789C6.9614 5.61343 8.05341 6.12403 8.81983 5.39405V6.11264C7.64044 6.65344 6.30612 5.89708 6.30612 4.66789C6.30612 3.48787 7.62058 2.66343 8.81983 3.23071Z" fill="#081D31"/>
<path id="Vector_6" d="M4.95992 5.73808C5.41261 5.73808 5.84945 5.15946 4.82887 4.81531C4.23327 4.60727 4.02673 4.38418 4.02673 3.95681C4.02673 3.07935 5.24184 2.76926 6.00036 3.41606L5.66677 3.82442C5.2538 3.38576 4.67795 3.58994 4.67795 3.91908C4.67795 4.08544 4.7852 4.17995 5.16641 4.30853C5.88917 4.55816 6.10361 4.78135 6.10361 5.2767C6.10361 6.39245 4.56281 6.69125 3.85596 5.70407L4.26503 5.32967C4.41189 5.59816 4.65809 5.73808 4.95992 5.73808Z" fill="#081D31"/>
<path id="Vector_7" d="M3.60978 3.11349H2.97437V6.21471H3.60978V3.11349Z" fill="#081D31"/>
<g id="Group_2">
<path id="Vector_8" d="M21 11.1744V7.31732C19.8154 8.02193 12.9534 11.3645 6.21564 12.5694H19.4202C20.2226 12.5599 21 11.9389 21 11.1744Z" fill="url(#paint1_linear_1_325)"/>
</g>
<path id="Vector_9" d="M0.929295 3.11349H0V6.21471H0.929243C2.15631 6.21471 2.68048 5.36759 2.68048 4.66791C2.68053 3.75643 1.96573 3.11349 0.929295 3.11349ZM1.6718 5.45077C1.47722 5.61717 1.21116 5.69282 0.802138 5.69282H0.635316V3.64296H0.802138C1.21116 3.64296 1.46532 3.70727 1.6718 3.89254C1.89815 4.08171 2.02526 4.36907 2.02526 4.66786C2.02531 4.96666 1.89815 5.25406 1.6718 5.45077Z" fill="#081D31"/>
</g>
</g>
</g>
<defs>
<linearGradient id="paint0_linear_1_325" x1="10.7776" y1="3.00012" x2="10.7776" y2="6.3737" gradientUnits="userSpaceOnUse">
<stop stop-color="#DE5214"/>
<stop offset="1" stop-color="#F38D1D"/>
</linearGradient>
<linearGradient id="paint1_linear_1_325" x1="13.6078" y1="7.31732" x2="13.6078" y2="12.5694" gradientUnits="userSpaceOnUse">
<stop stop-color="#E35E17"/>
<stop offset="1" stop-color="#F38E1D"/>
</linearGradient>
</defs>
</svg>
