<svg width="21" height="16" viewBox="0 0 21 16" fill="none" xmlns="http://www.w3.org/2000/svg">
<g id="logos:mastercard">
<g clip-path="url(#clip0_1_339)">
<g id="Group 897">
<path id="Vector" d="M4.23497 15.9205V14.8615C4.23497 14.4555 3.99857 14.1908 3.59336 14.1908C3.3908 14.1908 3.17132 14.2614 3.01936 14.4908C2.90124 14.2967 2.73243 14.1908 2.47919 14.1908C2.31031 14.1908 2.14159 14.2437 2.00647 14.4378V14.2261H1.65195V15.9205H2.00647V14.985C2.00647 14.685 2.15843 14.5437 2.39483 14.5437C2.63108 14.5437 2.74935 14.7026 2.74935 14.985V15.9205H3.10388V14.985C3.10388 14.685 3.2726 14.5437 3.49208 14.5437C3.72848 14.5437 3.84661 14.7026 3.84661 14.985V15.9205H4.23497ZM9.48521 14.2261H8.91128V13.7142H8.55676V14.2261H8.236V14.5613H8.55668V15.338C8.55668 15.7264 8.70864 15.9558 9.11384 15.9558C9.26581 15.9558 9.43453 15.9029 9.55281 15.8323L9.45145 15.5145C9.35017 15.5851 9.23204 15.6028 9.1476 15.6028C8.9788 15.6028 8.91128 15.4969 8.91128 15.3203V14.5613H9.48521V14.2261ZM12.4903 14.1907C12.2877 14.1907 12.1527 14.2967 12.0682 14.4378V14.2261H11.7137V15.9205H12.0682V14.9674C12.0682 14.685 12.1864 14.5261 12.4058 14.5261C12.4734 14.5261 12.5578 14.5438 12.6253 14.5614L12.7266 14.2085C12.6591 14.1908 12.5578 14.1908 12.4903 14.1908V14.1907ZM7.949 14.3673C7.78012 14.2437 7.54379 14.1908 7.29055 14.1908C6.88543 14.1908 6.61534 14.4026 6.61534 14.7379C6.61534 15.0204 6.81791 15.1792 7.17243 15.2321L7.34123 15.2498C7.52695 15.285 7.62823 15.338 7.62823 15.4263C7.62823 15.5498 7.49319 15.6381 7.25679 15.6381C7.02047 15.6381 6.83475 15.5498 6.71655 15.4616L6.54775 15.744C6.73347 15.8852 6.98671 15.9558 7.23987 15.9558C7.7126 15.9558 7.98276 15.7264 7.98276 15.4086C7.98276 15.1086 7.76327 14.9497 7.42559 14.8968L7.25679 14.8791C7.10483 14.8614 6.98671 14.8262 6.98671 14.7203C6.98671 14.5967 7.10483 14.5261 7.29055 14.5261C7.49319 14.5261 7.69575 14.6143 7.79703 14.6673L7.949 14.3673ZM17.3692 14.1908C17.1666 14.1908 17.0315 14.2967 16.9471 14.4378V14.2261H16.5926V15.9205H16.9471V14.9674C16.9471 14.685 17.0653 14.5261 17.2847 14.5261C17.3523 14.5261 17.4367 14.5438 17.5043 14.5614L17.6056 14.2085C17.538 14.1908 17.4367 14.1908 17.3692 14.1908ZM12.8448 15.0733C12.8448 15.5851 13.1824 15.9558 13.7058 15.9558C13.9421 15.9558 14.1109 15.9029 14.2797 15.7617L14.1109 15.4616C13.9759 15.5675 13.8408 15.6204 13.6889 15.6204C13.4019 15.6204 13.1993 15.4086 13.1993 15.0733C13.1993 14.7556 13.4019 14.5437 13.6889 14.5261C13.8408 14.5261 13.9759 14.579 14.1109 14.685L14.2797 14.3849C14.1109 14.2437 13.9421 14.1908 13.7058 14.1908C13.1824 14.1908 12.8448 14.5614 12.8448 15.0733ZM16.1199 15.0733V14.2261H15.7654V14.4378C15.6472 14.2791 15.4784 14.1908 15.2589 14.1908C14.8031 14.1908 14.4486 14.5614 14.4486 15.0733C14.4486 15.5851 14.8031 15.9558 15.2589 15.9558C15.4953 15.9558 15.6641 15.8676 15.7654 15.7087V15.9205H16.1199V15.0733ZM14.82 15.0733C14.82 14.7732 15.0057 14.5261 15.3095 14.5261C15.5965 14.5261 15.7992 14.7556 15.7992 15.0733C15.7992 15.3733 15.5965 15.6204 15.3095 15.6204C15.0057 15.6027 14.82 15.3733 14.82 15.0733ZM10.5826 14.1908C10.1099 14.1908 9.77221 14.5437 9.77221 15.0733C9.77221 15.6028 10.1098 15.9558 10.5995 15.9558C10.8358 15.9558 11.0722 15.8852 11.2579 15.7264L11.089 15.4616C10.954 15.5675 10.7852 15.6381 10.6164 15.6381C10.3969 15.6381 10.1774 15.5322 10.1267 15.2321H11.3254V15.091C11.3423 14.5437 11.0384 14.1908 10.5825 14.1908H10.5826ZM10.5826 14.5084C10.802 14.5084 10.9541 14.6497 10.9877 14.9145H10.1437C10.1774 14.685 10.3294 14.5084 10.5826 14.5084ZM19.3782 15.0733V13.5554H19.0236V14.4378C18.9054 14.2791 18.7366 14.1908 18.5172 14.1908C18.0614 14.1908 17.7068 14.5614 17.7068 15.0733C17.7068 15.5851 18.0614 15.9558 18.5172 15.9558C18.7536 15.9558 18.9224 15.8676 19.0236 15.7087V15.9205H19.3782V15.0733ZM18.0783 15.0733C18.0783 14.7732 18.2639 14.5261 18.5678 14.5261C18.8548 14.5261 19.0574 14.7556 19.0574 15.0733C19.0574 15.3733 18.8548 15.6204 18.5678 15.6204C18.2639 15.6027 18.0783 15.3733 18.0783 15.0733ZM6.22698 15.0733V14.2261H5.87246V14.4378C5.75426 14.2791 5.58546 14.1908 5.36598 14.1908C4.91017 14.1908 4.55565 14.5614 4.55565 15.0733C4.55565 15.5851 4.91017 15.9558 5.36598 15.9558C5.60238 15.9558 5.77118 15.8676 5.87246 15.7087V15.9205H6.22698V15.0733ZM4.91017 15.0733C4.91017 14.7732 5.09589 14.5261 5.39974 14.5261C5.68674 14.5261 5.88938 14.7556 5.88938 15.0733C5.88938 15.3733 5.68674 15.6204 5.39974 15.6204C5.09589 15.6027 4.91017 15.3733 4.91017 15.0733Z" fill="black"/>
<path id="Vector_2" d="M7.83105 1.35904H13.1489V11.3491H7.83105V1.35904Z" fill="#FF5F00"/>
<path id="Vector_3" d="M8.16883 6.35409C8.16883 4.32434 9.08044 2.52398 10.4816 1.35904C9.45188 0.511839 8.15199 0 6.7339 0C3.37423 0 0.65625 2.84165 0.65625 6.35409C0.65625 9.86645 3.37423 12.7082 6.73382 12.7082C8.15191 12.7082 9.4518 12.1963 10.4816 11.3491C9.08044 10.2018 8.16883 8.38384 8.16883 6.35409Z" fill="#EB001B"/>
<path id="Vector_4" d="M20.3241 6.35409C20.3241 9.86645 17.6062 12.7082 14.2466 12.7082C12.8285 12.7082 11.5286 12.1963 10.4988 11.3491C11.9169 10.1842 12.8116 8.38384 12.8116 6.35409C12.8116 4.32434 11.9 2.52398 10.4988 1.35904C11.5285 0.511839 12.8285 0 14.2466 0C17.6062 0 20.3242 2.85934 20.3242 6.35409H20.3241Z" fill="#F79E1B"/>
</g>
</g>
</g>
<defs>
<clipPath id="clip0_1_339">
<path d="M0 4C0 1.79086 1.79086 0 4 0H17C19.2091 0 21 1.79086 21 4V16H0V4Z" fill="white"/>
</clipPath>
</defs>
</svg>
