<svg width="69" height="24" viewBox="0 0 69 24" fill="none" xmlns="http://www.w3.org/2000/svg">
<g id="paypal">
<g id="Group 237">
<path id="Vector" d="M51.3981 8.17383H48.0192C47.8204 8.17383 47.6217 8.37259 47.5223 8.57135L46.131 17.3168C46.131 17.5155 46.2304 17.6149 46.4291 17.6149H48.2179C48.4167 17.6149 48.5161 17.5155 48.5161 17.3168L48.9136 14.8323C48.9136 14.6335 49.1124 14.4348 49.4105 14.4348H50.5037C52.7894 14.4348 54.0813 13.3416 54.3795 11.1552C54.5782 10.2608 54.3795 9.46577 53.982 8.96887C53.3857 8.47197 52.4913 8.17383 51.3981 8.17383ZM51.7956 11.4534C51.5968 12.6459 50.7024 12.6459 49.808 12.6459H49.2117L49.6093 10.3602C49.6093 10.2608 49.7086 10.1614 49.9074 10.1614H50.1062C50.7024 10.1614 51.2987 10.1614 51.5968 10.5589C51.7956 10.6583 51.7956 10.9565 51.7956 11.4534Z" fill="#139AD6"/>
<g id="Group">
<path id="Vector_2" d="M27.0499 8.17383H23.671C23.4723 8.17383 23.2735 8.37259 23.1741 8.57135L21.7828 17.3168C21.7828 17.5155 21.8822 17.6149 22.081 17.6149H23.671C23.8698 17.6149 24.0686 17.4162 24.1679 17.2174L24.5655 14.8323C24.5655 14.6335 24.7642 14.4348 25.0624 14.4348H26.1555C28.4413 14.4348 29.7332 13.3416 30.0313 11.1552C30.2301 10.2608 30.0313 9.46577 29.6338 8.96887C29.0375 8.47197 28.2425 8.17383 27.0499 8.17383ZM27.4475 11.4534C27.2487 12.6459 26.3543 12.6459 25.4599 12.6459H24.963L25.3605 10.3602C25.3605 10.2608 25.4599 10.1614 25.6586 10.1614H25.8574C26.4537 10.1614 27.0499 10.1614 27.3481 10.5589C27.4475 10.6583 27.5468 10.9565 27.4475 11.4534Z" fill="#263B80"/>
<path id="Vector_3" d="M37.2858 11.354H35.6958C35.5964 11.354 35.3976 11.4534 35.3976 11.5528L35.2983 12.0497L35.1989 11.8509C34.8014 11.354 34.1057 11.1553 33.3107 11.1553C31.5219 11.1553 29.9318 12.5466 29.6337 14.4348C29.4349 15.4286 29.733 16.323 30.2299 16.9193C30.7268 17.5156 31.4225 17.7144 32.3169 17.7144C33.8076 17.7144 34.6026 16.8199 34.6026 16.8199L34.5032 17.3168C34.5032 17.5156 34.6026 17.615 34.8014 17.615H36.292C36.4908 17.615 36.6896 17.4162 36.7889 17.2175L37.6833 11.6522C37.584 11.5528 37.3852 11.354 37.2858 11.354ZM35.0001 14.5342C34.8014 15.4286 34.1057 16.1243 33.1119 16.1243C32.615 16.1243 32.2175 15.9255 32.0188 15.7268C31.82 15.4286 31.7206 15.0311 31.7206 14.5342C31.82 13.6398 32.615 12.9441 33.5094 12.9441C34.0063 12.9441 34.3045 13.1429 34.6026 13.3416C34.9007 13.6398 35.0001 14.1367 35.0001 14.5342Z" fill="#263B80"/>
</g>
<path id="Vector_4" d="M61.5343 11.354H59.9442C59.8448 11.354 59.6461 11.4534 59.6461 11.5528L59.5467 12.0497L59.4473 11.8509C59.0498 11.354 58.3541 11.1553 57.5591 11.1553C55.7703 11.1553 54.1802 12.5466 53.8821 14.4348C53.6833 15.4286 53.9815 16.323 54.4784 16.9193C54.9752 17.5156 55.6709 17.7144 56.5653 17.7144C58.056 17.7144 58.851 16.8199 58.851 16.8199L58.7516 17.3168C58.7516 17.5156 58.851 17.615 59.0498 17.615H60.5405C60.7392 17.615 60.938 17.4162 61.0374 17.2175L61.9318 11.6522C61.8324 11.5528 61.733 11.354 61.5343 11.354ZM59.2485 14.5342C59.0498 15.4286 58.3541 16.1243 57.3603 16.1243C56.8635 16.1243 56.4659 15.9255 56.2672 15.7268C56.0684 15.4286 55.969 15.0311 55.969 14.5342C56.0684 13.6398 56.8634 12.9441 57.7579 12.9441C58.2548 12.9441 58.5529 13.1429 58.851 13.3416C59.2485 13.6398 59.3479 14.1367 59.2485 14.5342Z" fill="#139AD6"/>
<path id="Vector_5" d="M45.9319 11.354H44.2425C44.0437 11.354 43.9443 11.4534 43.8449 11.5528L41.6586 14.9316L40.6648 11.7515C40.5654 11.5528 40.466 11.4534 40.1679 11.4534H38.5778C38.379 11.4534 38.2797 11.6521 38.2797 11.8509L40.0685 17.118L38.379 19.5031C38.2797 19.7018 38.379 20 38.5778 20H40.1679C40.3666 20 40.466 19.9006 40.5654 19.8012L46.0313 11.9503C46.3294 11.6521 46.1307 11.354 45.9319 11.354Z" fill="#263B80"/>
<path id="Vector_6" d="M63.4229 8.47188L62.0316 17.416C62.0316 17.6148 62.131 17.7142 62.3298 17.7142H63.7211C63.9198 17.7142 64.1186 17.5154 64.218 17.3166L65.6093 8.57126C65.6093 8.3725 65.5099 8.27312 65.3111 8.27312H63.7211C63.6217 8.17374 63.5223 8.27312 63.4229 8.47188Z" fill="#139AD6"/>
<path id="Vector_7" d="M14.4286 5.19255C13.733 4.39752 12.441 4 10.6522 4H5.68324C5.38511 4 5.08697 4.29814 4.98759 4.59627L3 17.615C3 17.9131 3.19876 18.1119 3.39752 18.1119H6.47828L7.27331 13.2423V13.441C7.37269 13.1429 7.67083 12.8448 7.96897 12.8448H9.45966C12.3417 12.8448 14.528 11.6522 15.2237 8.37269C15.2237 8.27331 15.2237 8.17393 15.2237 8.07455C15.1243 8.07455 15.1243 8.07455 15.2237 8.07455C15.323 6.78262 15.1243 5.98759 14.4286 5.19255Z" fill="#263B80"/>
<path id="Vector_8" d="M15.1244 8.07446C15.1244 8.17384 15.1244 8.27322 15.1244 8.3726C14.4288 11.7515 12.2424 12.8447 9.36044 12.8447H7.86975C7.57161 12.8447 7.27347 13.1428 7.17409 13.441L6.1803 19.5031C6.1803 19.7019 6.27968 19.9006 6.57782 19.9006H9.16168C9.45982 19.9006 9.75796 19.7019 9.75796 19.4037V19.3043L10.2549 16.2236V16.0248C10.2549 15.7267 10.553 15.5279 10.8511 15.5279H11.2486C13.7331 15.5279 15.7207 14.5341 16.2176 11.5527C16.4164 10.3602 16.317 9.26702 15.7207 8.57136C15.6213 8.3726 15.4226 8.17384 15.1244 8.07446Z" fill="#139AD6"/>
<path id="Vector_9" d="M14.4285 7.77641C14.3291 7.77641 14.2298 7.67703 14.1304 7.67703C14.031 7.67703 13.9316 7.67703 13.8322 7.57765C13.4347 7.47827 13.0372 7.47827 12.5403 7.47827H8.6645C8.56513 7.47827 8.46575 7.47827 8.36637 7.57765C8.16761 7.67703 8.06823 7.87579 8.06823 8.07455L7.27319 13.2423V13.441C7.37257 13.1429 7.67071 12.8448 7.96885 12.8448H9.45954C12.3415 12.8448 14.5279 11.6522 15.2235 8.37269C15.2235 8.27331 15.2235 8.17393 15.3229 8.07455C15.1242 7.97517 15.0248 7.87579 14.826 7.87579C14.5279 7.77641 14.5279 7.77641 14.4285 7.77641Z" fill="#232C65"/>
</g>
</g>
</svg>
