<svg width="24" height="24" viewBox="0 0 24 24" fill="none" xmlns="http://www.w3.org/2000/svg">
<g id="Icon/yt">
<path id="Vector" d="M11.712 5.27995C15.168 5.27995 17.952 5.56795 19.296 5.80795C20.016 5.99995 20.592 6.47995 20.688 7.10395C20.976 8.63995 21.168 10.2719 21.168 11.9519C21.12 14.0159 20.88 15.6959 20.688 16.8959C20.544 17.8079 19.584 18.0959 19.296 18.1919C17.568 18.5279 14.688 18.7679 11.808 18.7679C8.928 18.7679 6 18.5759 4.32 18.1919C3.6 17.9999 3.024 17.5199 2.928 16.8959C2.544 15.5519 2.4 13.7759 2.4 11.9999C2.4 9.79195 2.592 8.15995 2.784 7.15195C2.928 6.23995 3.936 5.95195 4.176 5.85595C5.76 5.51995 8.688 5.27995 11.712 5.27995ZM11.712 4.31995C8.544 4.31995 5.568 4.55995 3.984 4.89595C2.928 5.13595 2.016 5.85595 1.824 6.95995C1.632 8.11195 1.44 9.83995 1.44 11.9999C1.44 14.1599 1.632 15.8399 1.872 17.0399C2.064 18.0959 2.976 18.8639 4.032 19.1039C5.712 19.4399 8.592 19.6799 11.76 19.6799C14.928 19.6799 17.808 19.4399 19.488 19.1039C20.544 18.8639 21.456 18.1439 21.648 17.0399C21.84 15.8399 22.08 14.1119 22.128 11.9519C22.128 9.79195 21.888 8.06395 21.648 6.86395C21.456 5.80795 20.544 5.03995 19.488 4.79995C17.808 4.55995 14.88 4.31995 11.712 4.31995Z" fill="white"/>
<path id="Vector_2" d="M10.08 9.79203L13.92 12L10.08 14.208V9.79203ZM9.12 8.16003V15.84L15.84 12L9.12 8.16003Z" fill="white"/>
</g>
</svg>
